Coordinates
version=1
nRows=20
nColumns=38
inDegrees=no

Units are S.I. units (second, meters, Newtons, ...)
If the header above contains a line with 'inDegrees', this indicates whether rotational values are in degrees (yes) or radians (no).

endheader
time	pelvis_tilt	pelvis_list	pelvis_rotation	pelvis_tx	pelvis_ty	pelvis_tz	hip_flexion_r	hip_adduction_r	hip_rotation_r	knee_angle_r	ankle_angle_r	subtalar_angle_r	mtp_angle_r	hip_flexion_l	hip_adduction_l	hip_rotation_l	knee_angle_l	ankle_angle_l	subtalar_angle_l	mtp_angle_l	lumbar_extension	lumbar_bending	lumbar_rotation	arm_flex_r	arm_add_r	arm_rot_r	elbow_flex_r	pro_sup_r	wrist_flex_r	wrist_dev_r	arm_flex_l	arm_add_l	arm_rot_l	elbow_flex_l	pro_sup_l	wrist_flex_l	wrist_dev_l
0.54	-0.22005	1.23362	-1.36823	0.815176	1.31291	0.980417	-0.390067	0.0289244	-0.266671	0.440107	0.246444	0	0	0.0721167	-0.0828009	-0.299646	0	0.00765176	0	0	-0.537274	0.134486	0.0268264	0.401284	-0.412758	0.0566778	1.07961	0.999131	0	0	0.356348	-0.282197	-0.0160459	1.08522	1.0723	0	0
0.55	-0.22843	1.23442	-1.34689	0.817064	1.30015	0.978004	-0.401802	0.0333212	-0.275656	0.446201	0.250205	0	0	0.0846879	-0.082915	-0.280103	0	0.0518499	0	0	-0.533487	0.139467	0.0175091	0.400449	-0.413465	0.0570908	1.0782	0.996984	0	0	0.362686	-0.283502	-0.0109352	1.08209	1.07298	0	0
0.56	-0.237471	1.23444	-1.32722	0.818917	1.28692	0.975662	-0.414131	0.0372992	-0.281823	0.452759	0.252423	0	0	0.0916578	-0.0823834	-0.268267	0	0.100376	0	0	-0.529879	0.143871	0.0101969	0.398768	-0.413727	0.0554806	1.07734	0.992686	0	0	0.369312	-0.284668	-0.00496343	1.0777	1.07296	0	0
0.57	-0.248189	1.23363	-1.30928	0.820654	1.27298	0.973393	-0.427377	0.04079	-0.284289	0.459409	0.253066	0	0	0.0927657	-0.0822541	-0.267765	0	0.141517	0	0	-0.526204	0.147634	0.00533698	0.396391	-0.413337	0.0523338	1.07691	0.987345	0	0	0.375093	-0.285552	0.00117636	1.07344	1.07034	0	0
0.58	-0.254169	1.23033	-1.29999	0.822041	1.25844	0.97144	-0.443831	0.0421092	-0.281892	0.465975	0.251813	0	0	0.0863441	-0.0818122	-0.274041	0	0.158276	0	0	-0.525277	0.148166	0.00297795	0.393758	-0.411171	0.0464324	1.07649	0.99008	0	0	0.379944	-0.287114	0.00673387	1.0706	1.07522	0	0
0.59	-0.251165	1.22445	-1.30299	0.82297	1.24358	0.96982	-0.463351	0.0403823	-0.273462	0.473198	0.24887	0	0	0.0728999	-0.0798136	-0.281124	0	0.145032	0	0	-0.528128	0.143774	0.00305904	0.389849	-0.408001	0.0400389	1.07742	0.985579	0	0	0.384766	-0.289678	0.0134572	1.06999	1.07358	0	0
0.6	-0.249912	1.22313	-1.31462	0.822925	1.22842	0.967975	-0.473291	0.0337883	-0.250477	0.489339	0.248592	0	0	0.0602215	-0.0780716	-0.29943	0	0.116399	0	0	-0.527068	0.133512	0.0146871	0.379416	-0.403377	0.0215996	1.08435	0.943552	0	0	0.390962	-0.290205	0.0248164	1.06761	1.02654	0	0
0.61	-0.225676	1.21358	-1.3401	0.823512	1.21322	0.966692	-0.495183	0.0231969	-0.248136	0.503296	0.240207	0	0	0.0333709	-0.0691726	-0.296202	0	0.0861883	0	0	-0.534728	0.120292	0.0122412	0.377737	-0.400762	0.0249932	1.07967	0.974703	0	0	0.393597	-0.297472	0.0305673	1.07135	1.06083	0	0
0.62	-0.210941	1.21071	-1.36312	0.823253	1.19692	0.965012	-0.503833	0.0114602	-0.232543	0.528497	0.233599	0	0	0.00261194	-0.0654667	-0.315433	0	0.0849838	0	0	-0.533403	0.105238	0.0195973	0.369444	-0.398362	0.0181062	1.07945	0.973618	0	0	0.396537	-0.300586	0.038065	1.0711	1.06054	0	0
0.63	-0.200051	1.20454	-1.38786	0.823046	1.18132	0.963208	-0.510915	-0.00207201	-0.213541	0.560324	0.223507	0	0	-0.0131589	-0.0644422	-0.322927	0.0187778	0.106753	0	0	-0.535898	0.0907787	0.0304983	0.365145	-0.398035	0.016657	1.07878	0.969496	0	0	0.398085	-0.302945	0.042631	1.07144	1.05925	0	0
0.64	-0.192837	1.20023	-1.4144	0.822876	1.16558	0.960987	-0.509822	-0.0242321	-0.205795	0.603572	0.21216	0	0	-0.0310304	-0.0609675	-0.331504	0.0364216	0.127723	0	0	-0.535827	0.0756805	0.0440786	0.362751	-0.398431	0.0165996	1.07722	0.9715	0	0	0.396937	-0.304334	0.0442457	1.07328	1.05946	0	0
0.65	-0.192748	1.19723	-1.43417	0.823514	1.15021	0.95863	-0.501661	-0.0438157	-0.189995	0.652312	0.192642	0	0	-0.0451278	-0.0575843	-0.340125	0.0430871	0.110102	0	0	-0.534942	0.0645285	0.0558848	0.363917	-0.399273	0.0188751	1.07458	0.974071	0	0	0.393172	-0.303764	0.0405006	1.07677	1.05972	0	0
0.66	-0.195685	1.19895	-1.44859	0.824802	1.13566	0.956284	-0.481086	-0.0613484	-0.170196	0.709309	0.16313	0	0	-0.0446616	-0.0583213	-0.354177	0.0611619	0.0572376	0	0	-0.531358	0.0555976	0.0643196	0.36695	-0.398766	0.0212717	1.07167	0.975069	0	0	0.388844	-0.301432	0.032258	1.08077	1.06146	0	0
0.67	-0.185513	1.20357	-1.47401	0.826067	1.12222	0.954898	-0.450509	-0.0803426	-0.145522	0.773395	0.123038	0	0	-0.0328004	-0.0597459	-0.376393	0.101224	0.0118204	0	0	-0.529161	0.04151	0.0706459	0.369847	-0.395949	0.020271	1.07033	0.972775	0	0	0.38844	-0.299183	0.0259823	1.08292	1.06357	0	0
0.68	-0.162953	1.21011	-1.51702	0.826212	1.10952	0.954526	-0.410503	-0.101022	-0.107694	0.84395	0.0748665	0	0	-0.0142881	-0.0624608	-0.418329	0.162251	0.000677439	0	0	-0.527639	0.0193269	0.0832572	0.371185	-0.392562	0.0153729	1.07125	0.959273	0	0	0.393168	-0.2973	0.0253853	1.08033	1.06443	0	0
0.69	-0.129579	1.21134	-1.56741	0.826212	1.09678	0.955039	-0.375921	-0.120803	-0.0730844	0.910909	0.0258635	0	0	-0.00789673	-0.0595243	-0.446378	0.210139	-0.00703833	0	0	-0.531018	-0.00469542	0.0939134	0.373069	-0.390654	0.0100308	1.07245	0.964063	0	0	0.400617	-0.296822	0.0285233	1.07521	1.0681	0	0
0.7	-0.100996	1.21227	-1.61361	0.825941	1.08397	0.955523	-0.340032	-0.135412	-0.0355421	0.976289	-0.0196262	0	0	-0.00344267	-0.0577724	-0.474555	0.255638	-0.0114734	0	0	-0.533029	-0.0266557	0.106781	0.375443	-0.391443	0.00754039	1.07327	0.973355	0	0	0.40842	-0.296219	0.033078	1.06778	1.07034	0	0
0.71	-0.0835222	1.21161	-1.64607	0.827273	1.07128	0.955934	-0.305497	-0.153108	-0.00368595	1.03562	-0.0540067	0	0	-0.00144871	-0.0498164	-0.479666	0.293871	-0.014266	0	0	-0.53623	-0.0403151	0.116193	0.380127	-0.394606	0.00993879	1.07324	0.982609	0	0	0.413909	-0.295349	0.0361832	1.06156	1.07213	0	0
0.72	-0.0672357	1.20972	-1.66868	0.828106	1.05865	0.956593	-0.276962	-0.158566	0.0190929	1.08827	-0.0866067	0	0	-0.005472	-0.0441195	-0.480383	0.321871	-0.00636888	0	0	-0.540601	-0.0513098	0.118092	0.384627	-0.395996	0.0140273	1.07229	0.987741	0	0	0.417655	-0.296093	0.0367502	1.05952	1.07372	0	0
0.73	-0.0617308	1.20702	-1.67661	0.829215	1.04599	0.957421	-0.252436	-0.158104	0.0352592	1.13505	-0.104994	0	0	-0.0126246	-0.0413363	-0.480426	0.343169	-0.00100316	0	0	-0.545572	-0.0561392	0.116305	0.389281	-0.39569	0.0173967	1.07044	0.988222	0	0	0.418451	-0.296834	0.0346557	1.0616	1.07513	0	0
